<svg xmlns="http://www.w3.org/2000/svg" viewBox="0 0 1920 1080" preserveAspectRatio="xMidYMid slice">
  <defs>
    <linearGradient id="ceil" x1="0" y1="0" x2="0" y2="1">
      <stop offset="0%" stop-color="#bfdbfe"/>
      <stop offset="100%" stop-color="#f1f5f9"/>
    </linearGradient>
  </defs>
  <rect width="1920" height="1080" fill="url(#ceil)"/>
  <text x="960" y="110" fill="#1e3a8a" font-family="Segoe UI,Arial,sans-serif" font-size="42" font-weight="700" text-anchor="middle">Open Space - Engineering</text>
  <rect y="880" width="1920" height="200" fill="#64748b"/>
  <g fill="#ffffff" stroke="#94a3b8" stroke-width="3">
    <rect x="80" y="360" width="300" height="220" rx="8"/>
    <rect x="420" y="360" width="300" height="220" rx="8"/>
    <rect x="760" y="360" width="300" height="220" rx="8"/>
    <rect x="1100" y="360" width="300" height="220" rx="8"/>
    <rect x="1440" y="360" width="300" height="220" rx="8"/>
    <rect x="80" y="620" width="300" height="220" rx="8"/>
    <rect x="420" y="620" width="300" height="220" rx="8"/>
    <rect x="760" y="620" width="300" height="220" rx="8"/>
    <rect x="1100" y="620" width="300" height="220" rx="8"/>
    <rect x="1440" y="620" width="300" height="220" rx="8"/>
  </g>
  <g fill="#0f172a">
    <rect x="110" y="390" width="240" height="140" rx="4"/>
    <rect x="450" y="390" width="240" height="140" rx="4"/>
    <rect x="790" y="390" width="240" height="140" rx="4"/>
    <rect x="1130" y="390" width="240" height="140" rx="4"/>
    <rect x="1470" y="390" width="240" height="140" rx="4"/>
    <rect x="110" y="650" width="240" height="140" rx="4"/>
    <rect x="450" y="650" width="240" height="140" rx="4"/>
  </g>
  <rect x="120" y="340" width="100" height="36" fill="#fde047"/>
  <circle cx="1680" cy="500" r="80" fill="#e2e8f0" stroke="#94a3b8" stroke-width="4"/>
  <text x="1680" y="515" font-size="52" text-anchor="middle">&#x1F3A7;</text>
</svg>
